<svg width="57" height="61" viewBox="0 0 57 61" fill="none" xmlns="http://www.w3.org/2000/svg">
<path d="M27.2812 9.53125C27.2812 7.77595 27.8017 6.06005 28.7769 4.60057C29.7521 3.14108 31.1382 2.00355 32.7599 1.33182C34.3816 0.660095 36.1661 0.484341 37.8876 0.826785C39.6092 1.16923 41.1906 2.01449 42.4318 3.25568C43.673 4.49687 44.5182 6.07825 44.8607 7.79983C45.2031 9.52141 45.0274 11.3059 44.3557 12.9276C43.6839 14.5493 42.5464 15.9353 41.0869 16.9105C39.6274 17.8857 37.9115 18.4063 36.1562 18.4063C33.8047 18.3989 31.5515 17.4615 29.8887 15.7987C28.2259 14.1359 27.2885 11.8828 27.2812 9.53125V9.53125ZM56.125 31.0531C56.125 30.4647 55.8912 29.9003 55.4751 29.4842C55.059 29.0681 54.4947 28.8344 53.9062 28.8344C53.5488 28.8315 53.1962 28.9173 52.8801 29.084H52.9078C52.88 29.084 51.105 29.9438 47.8601 29.6109C44.6152 29.2781 39.6785 27.8359 33.0777 22.6496C28.9175 19.4047 22.4554 15.827 15.2168 17.2137C10.8347 18.0457 8.3109 20.2922 8.03356 20.5418C7.81546 20.7365 7.63852 20.9728 7.51317 21.2369C7.38781 21.501 7.31657 21.7875 7.30365 22.0796C7.29073 22.3716 7.33638 22.6633 7.43792 22.9374C7.53946 23.2116 7.69483 23.4626 7.89489 23.6758C8.29216 24.1096 8.84548 24.368 9.43317 24.394C10.0209 24.42 10.5948 24.2115 11.0289 23.8145C11.334 23.5371 18.1843 17.602 28.9453 25.0902C27.6269 29.507 25.5736 33.67 22.8715 37.4043L22.2058 38.2641C16.964 44.9758 10.5297 47.9711 3.09684 47.2223C2.50839 47.1634 1.92067 47.3408 1.46296 47.7152C1.00525 48.0897 0.71506 48.6307 0.656215 49.2191C0.59737 49.8076 0.774695 50.3953 1.14918 50.853C1.52367 51.3107 2.06464 51.6009 2.65309 51.6598C3.56832 51.743 4.42809 51.7707 5.28786 51.7707C14.3293 51.7707 20.9855 46.9449 25.5894 41.1484C30.9699 42.5906 40.5937 46.7508 40.5937 58.316C40.5937 58.9045 40.8275 59.4688 41.2436 59.8849C41.6597 60.301 42.224 60.5348 42.8125 60.5348C43.4009 60.5348 43.9653 60.301 44.3814 59.8849C44.7975 59.4688 45.0312 58.9045 45.0312 58.316C45.0312 51.4656 42.2301 45.7246 36.9328 41.7031C34.0484 39.5121 30.8312 38.1531 28.2797 37.3211C30.1161 34.3489 31.605 31.1757 32.7172 27.8637C39.8726 32.8281 45.5304 34.0484 49.3578 34.0484C53.1851 34.0484 54.766 33.0777 54.9324 32.9668C55.2879 32.7883 55.5873 32.5153 55.7977 32.1776C56.0081 31.84 56.1214 31.4509 56.125 31.0531V31.0531Z" fill="black"/>
</svg>
