<svg width="175" height="175" viewBox="0 0 175 175" fill="none" xmlns="http://www.w3.org/2000/svg">
<path d="M172.266 1.19628C174.414 2.75768 175.293 4.83956 174.902 7.4419L149.902 157.337C149.577 159.223 148.535 160.687 146.777 161.728C145.866 162.249 144.857 162.509 143.75 162.509C143.034 162.509 142.253 162.346 141.406 162.021L89.9415 141.039L60.8399 172.951C59.668 174.317 58.1381 175 56.2501 175C55.3386 175 54.5899 174.87 54.004 174.61C52.767 174.154 51.7904 173.39 51.0743 172.316C50.3581 171.243 50.0001 170.056 50.0001 168.754V124.645L3.90631 105.81C1.49745 104.9 0.19537 103.11 5.78233e-05 100.443C-0.195255 97.9057 0.846412 95.9865 3.12506 94.6853L165.625 1.00111C167.904 -0.365123 170.117 -0.300064 172.266 1.19628ZM138.867 147.48L160.449 18.3717L20.4102 99.0768L53.2227 112.446L137.5 50.0877L90.8204 127.865L138.867 147.48Z" fill="black"/>
</svg>
