<svg width="20" height="16" viewBox="0 0 20 16" fill="none" xmlns="http://www.w3.org/2000/svg">
<path d="M18.5556 0.666626H1.44445C1.1203 0.666626 0.809421 0.795395 0.580209 1.02461C0.350998 1.25382 0.222229 1.56469 0.222229 1.88885V14.1111C0.222229 14.4352 0.350998 14.7461 0.580209 14.9753C0.809421 15.2045 1.1203 15.3333 1.44445 15.3333H18.5556C18.8797 15.3333 19.1906 15.2045 19.4198 14.9753C19.649 14.7461 19.7778 14.4352 19.7778 14.1111V1.88885C19.7778 1.56469 19.649 1.25382 19.4198 1.02461C19.1906 0.795395 18.8797 0.666626 18.5556 0.666626ZM17.6144 14.1111H2.4589L6.73667 9.68662L5.85667 8.83718L1.44445 13.4022V2.81774L9.04056 10.3772C9.26956 10.6048 9.57933 10.7326 9.90223 10.7326C10.2251 10.7326 10.5349 10.6048 10.7639 10.3772L18.5556 2.62829V13.3227L14.0578 8.82496L13.1961 9.68662L17.6144 14.1111ZM2.24501 1.88885H17.5656L9.90223 9.5094L2.24501 1.88885Z" fill="black"/>
</svg>
